<svg width="270" height="258" viewBox="0 0 270 258" fill="none" xmlns="http://www.w3.org/2000/svg">
<path d="M138.653 5.10862L173.203 82.6177C174.366 85.226 176.831 87.0168 179.67 87.3165L264.062 96.2236C267.505 96.5869 268.892 100.855 266.32 103.173L203.281 159.983C201.16 161.895 200.219 164.792 200.811 167.586L218.418 250.6C219.137 253.987 215.506 256.625 212.507 254.895L138.997 212.497C136.523 211.07 133.477 211.07 131.003 212.497L57.493 254.895C54.4942 256.625 50.8633 253.987 51.5815 250.6L69.189 167.586C69.7815 164.792 68.84 161.895 66.7187 159.983L3.67958 103.173C1.10792 100.855 2.49482 96.5869 5.93755 96.2236L90.3296 87.3165C93.1694 87.0168 95.6342 85.226 96.7968 82.6178L131.347 5.10863C132.756 1.94667 137.244 1.94667 138.653 5.10862Z" fill="white" stroke="url(#paint0_radial_10_19)" stroke-width="4"/>
<defs>
<radialGradient id="paint0_radial_10_19" cx="0" cy="0" r="1" gradientUnits="userSpaceOnUse" gradientTransform="translate(135 76) rotate(90) scale(174)">
<stop stop-color="#6D3CFB"/>
<stop offset="1" stop-color="#F8D20E" stop-opacity="0.94"/>
</radialGradient>
</defs>
</svg>
